<?xml version="1.0" encoding="UTF-8"?>
<svg width="20px" height="20px" viewBox="0 0 20 20" version="1.1" xmlns="http://www.w3.org/2000/svg" xmlns:xlink="http://www.w3.org/1999/xlink">
    <!-- Generator: Sketch 47.1 (45422) - http://www.bohemiancoding.com/sketch -->
    <title>Shape</title>
    <desc>Created with Sketch.</desc>
    <defs></defs>
    <g id="Maquette" stroke="none" stroke-width="1" fill="none" fill-rule="evenodd">
        <g id="Menu" transform="translate(-1272.000000, -25.000000)" fill-rule="nonzero" fill="#363636">
            <g id="Header" transform="translate(150.000000, 0.000000)">
                <g id="Group" transform="translate(1113.000000, 17.000000)">
                    <path d="M19,8 C13.5,8 9,12.5 9,18 C9,23.5 13.5,28 19,28 C24.5,28 29,23.5 29,18 C29,12.5 24.5,8 19,8 L19,8 Z M19,11 C20.7,11 22,12.3 22,14 C22,15.7 20.7,17 19,17 C17.3,17 16,15.7 16,14 C16,12.3 17.3,11 19,11 L19,11 Z M19,25.2 C16.5,25.2 14.3,23.9 13,22 C13,20 17,18.9 19,18.9 C21,18.9 25,20 25,22 C23.7,23.9 21.5,25.2 19,25.2 L19,25.2 Z" id="Shape"></path>
                </g>
            </g>
        </g>
    </g>
</svg>